<svg width="65" height="65" viewBox="0 0 65 65" fill="none" xmlns="http://www.w3.org/2000/svg">
<g clip-path="url(#clip0_246_1240)">
<circle cx="32.3997" cy="32.3996" r="32" transform="rotate(89.28 32.3997 32.3996)" fill="#222222"/>
<path d="M32.6892 55.3977C29.669 55.4356 26.671 54.8784 23.8662 53.7577C21.0614 52.6369 18.5048 50.9748 16.3424 48.866C14.18 46.7573 12.4541 44.2433 11.2633 41.4675C10.0724 38.6918 9.43997 35.7087 9.40202 32.6885C9.36407 29.6683 9.92135 26.6703 11.0421 23.8655C12.1628 21.0607 13.8249 18.5041 15.9337 16.3417C18.0424 14.1793 20.5564 12.4534 23.3322 11.2625C26.1079 10.0717 29.091 9.43927 32.1112 9.40132L32.4002 32.3995L32.6892 55.3977Z" fill="white"/>
<path d="M37.6755 54.3352C40.0391 54.3055 42.3737 53.8105 44.546 52.8785C46.7183 51.9466 48.6858 50.5959 50.3361 48.9036C51.9865 47.2112 53.2873 45.2104 54.1644 43.0154C55.0414 40.8203 55.4776 38.474 55.4479 36.1104L37.4493 36.3366L37.6755 54.3352Z" fill="white"/>
</g>
<defs>
<clipPath id="clip0_246_1240">
<rect width="64" height="64" fill="white" transform="translate(63.9951) rotate(89.28)"/>
</clipPath>
</defs>
</svg>
